<?xml version="1.0" encoding="UTF-8"?><svg id="a" xmlns="http://www.w3.org/2000/svg" width="661.2285" height="661.2285" viewBox="0 0 661.2285 661.2285"><defs><style>.b,.c{fill:#fff;stroke-width:0px;}.c{fill-rule:evenodd;}</style></defs><path class="b" d="m398.8003,331.0527c-.1741-1.5518-2.4376-1.5329-2.6032.0198-1.5736,14.751-6.5243,28.5796-15.163,41.2205-.6424.94-.8008,2.1283-.3968,3.1927.762,2.0074,2.0009,5.3385,2.6276,7.3892,1.0645,3.4828,5.8965,3.7582,7.388.4357,7.4904-16.6851,10.132-34.5725,8.1474-52.258Z"/><path class="b" d="m169.1034,318.1249c5.6703-18.3504,15.5172-35.4019,29.2669-50.6811,12.7623-14.1817,28.5128-26.4753,46.814-36.5392,17.1051-9.4061,36.2986-16.64,55.5054-20.9197l1.1506-.2563.9742-.6635c4.8963-3.3344,10.7793-7.7617,17.5914-12.8881,21.291-16.0226,50.4502-37.9664,78.3774-48.1594l.027-.01c6.4934-2.4045,13.2272-3.5734,20.5862-3.5734,13.6418,0,27.5177,4.0151,42.2084,8.2662,11.6364,3.3671,18.6506,7.8185,30.9066,11.3415,3.0197.868,5.444,4.8031,5.3083,10.0477-.1329,5.1348-1.7685,10.5517-5.6665,16.4372-.1575.1709-1.571,1.55-7.6905,3.4304-4.5797,1.4072-10.0135,2.5837-15.2686,3.7215-5.4735,1.1851-23.1869,3.431-35.9199,13.4624-7.0677,5.5682-14.1402,13.3239-20.4527,22.4286-13.4524,19.4027-21.9313,42.6476-22.6884,62.1972-.3266,5.6269-.2544,11.3529.2146,17.0196l.0068.076c1.0181,10.6866-.0237,21.3777-3.0967,31.7763-2.9657,10.035-7.7207,19.4893-14.1332,28.1002-7.6242,10.2382-17.2144,18.7566-28.0727,25.0902-2.9761,1.7359-6.3919-1.4312-4.8653-4.5199,8.5859-17.3721,16.0131-34.3791,11.4596-51.4828l-1.0667-4.0074-4.1149-.5142c-4.5925-.574-18.1746-.8651-22.7216-.8651-38.5499,0-73.1193,20.426-92.473,54.6396-13.4759,23.8226-17.2387,50.7207-11.3454,76.1776.7656,3.3071-3.1956,5.6206-5.7039,3.3333l-.6041-.5509c-8.2788-7.5557-15.7296-16.0146-22.1458-25.1418-6.4569-9.185-11.9105-19.1111-16.2096-29.5026-4.3718-10.5671-7.5856-21.7045-9.5521-33.1031l-.0035-.0202c-3.954-22.4721-2.8108-44.0543,3.3978-64.1471Zm286.2721-152.7982c-2.3662,4.8103,3.1932,8.7406,6.9389,4.9051.0701-.0717.1314-.1585.1757-.2485,2.3672-4.8107-3.1935-8.7417-6.939-4.9051-.07.0718-.1314.1585-.1757.2485Z"/><path class="c" d="m227.979,413.5832c2.2766-7.3297,5.4025-14.405,9.276-21.027,1.4054-2.4026,4.9113-2.2317,6.1216.2749,11.4783,23.7722,30.5358,43.1786,53.9573,55.2121,58.8805,30.4122,123.9018,7.0737,157.2646-41.585.4027-.5873.8067-1.2297,1.2115-1.9222,4.6353-7.9305,16.6143-1.8978,12.9506,6.5258-.1447.3326-.2915.6635-.4405.9925-.9211,2.0335-1.6117,4.1654-2.4853,6.2229-8.706,20.9131-22.0294,39.8882-38.5761,55.3489,0,0,.0002.0014-.0011.0016-43.1062,42.499-122.7084,56.9816-176.3427,28.1586-10.4972-5.6411-18.5143-15.0574-22.2367-26.378-6.5689-19.9774-6.9445-42.6133-.6991-61.8253Z"/><path class="b" d="m268.7402,366.7244c-3.1111,15.11-2.805,31.1006.7279,46.2647.5722,2.4558-2.5439,4.0238-4.188,2.1118l-.0658-.0765c-7.823-9.1054-14.1416-19.3266-18.7804-30.3797l-.5616-1.3691c-.4845-1.1811-.2729-2.5274.5317-3.5186,4.9508-6.0991,10.599-11.6428,16.8445-16.4786,2.5313-1.9599,6.1373.3104,5.4917,3.446Z"/></svg>