<?xml version="1.0" encoding="UTF-8"?><svg id="a" xmlns="http://www.w3.org/2000/svg" width="1494.5002" height="661.2285" viewBox="0 0 1494.5002 661.2285"><defs><style>.b{fill-rule:evenodd;}.b,.c{stroke-width:0px;}</style></defs><path class="c" d="m608.1252,261.4369c38.3021,0,70.1924,31.553,70.1924,72.2173s-31.8903,72.2173-70.1924,72.2173-70.1924-31.553-70.1924-72.2173,31.8904-72.2173,70.1924-72.2173Zm0,119.1248c26.6597,0,41.6768-22.6101,41.6768-46.9075s-15.0171-46.9075-41.6768-46.9075-41.6766,22.6101-41.6766,46.9075,15.0171,46.9075,41.6766,46.9075Z"/><path class="c" d="m772.4735,261.4369c27.672,0,41.1705,14.6797,41.1705,14.6797l-12.4862,19.2356s-10.2926-9.9553-26.9971-9.9553c-12.8236,0-19.5729,7.2556-19.5729,16.3669,0,7.593,7.593,12.4863,18.0543,17.2107,19.0667,8.6055,45.895,18.0542,45.895,43.5327,0,31.0469-23.6224,43.3643-50.282,43.3643-34.2526,0-50.6195-20.7542-50.6195-20.7542l14.8484-20.0791s15.5233,16.5359,33.915,16.5359c9.6177,0,23.4537-2.8687,23.4537-17.5483,0-11.811-14.3423-17.5479-32.9027-25.8159-18.0543-8.0991-28.0095-20.5852-28.0095-35.4336,0-24.9722,21.5977-41.3394,43.5328-41.3394Z"/><path class="c" d="m891.2614,263.9679v59.5623l52.1381-59.5623h31.8903l-58.7186,67.1553,66.9866,72.0486h-36.2773l-56.0189-60.9121v60.9121h-26.3221v-139.2039h26.3221Z"/><path class="c" d="m1033.1668,403.1717h-28.1782l55.6815-139.2039h24.2974l55.6815,139.2039h-28.1782l-12.1487-32.5654h-55.0066l-12.1487,32.5654Zm39.652-103.6013l-18.3917,47.9197h36.7834l-18.3917-47.9197Z"/><path class="c" d="m1223.8366,263.9679c27.3345,0,46.7386,14.1736,46.7386,41.8455,0,21.9353-12.4861,36.7837-31.384,41.8457l45.5575,55.5127h-33.5776l-41.3392-53.6567h-6.243v53.6567h-26.3221v-139.2039h46.5699Zm-20.2478,64.2869h12.1487c15.0171,0,27.1658-6.0742,27.1658-21.5977s-12.1487-21.5977-27.1658-21.5977h-12.1487v43.1953Z"/><path class="c" d="m1349.5437,263.9679v139.2039h-26.3221v-139.2039h26.3221Z"/><path class="c" d="m379.8314,331.0527c-.1741-1.5518-2.4376-1.5329-2.6032.0198-1.5736,14.751-6.5243,28.5796-15.163,41.2205-.6424.94-.8008,2.1283-.3968,3.1927.762,2.0074,2.0009,5.3385,2.6276,7.3892,1.0645,3.4828,5.8965,3.7582,7.388.4357,7.4904-16.6851,10.132-34.5725,8.1474-52.258Z"/><path class="c" d="m150.1344,318.1249c5.6703-18.3504,15.5172-35.4019,29.2669-50.6811,12.7623-14.1817,28.5128-26.4753,46.814-36.5392,17.1051-9.4061,36.2986-16.64,55.5054-20.9197l1.1506-.2563.9742-.6635c4.8963-3.3344,10.7793-7.7617,17.5914-12.8881,21.291-16.0226,50.4502-37.9664,78.3774-48.1594l.027-.01c6.4934-2.4045,13.2272-3.5734,20.5862-3.5734,13.6418,0,27.5177,4.0151,42.2084,8.2662,11.6364,3.3671,18.6506,7.8185,30.9066,11.3415,3.0197.868,5.444,4.8031,5.3083,10.0477-.1329,5.1348-1.7685,10.5517-5.6665,16.4372-.1575.1709-1.571,1.55-7.6905,3.4304-4.5797,1.4072-10.0135,2.5837-15.2686,3.7215-5.4735,1.1851-23.1869,3.431-35.9199,13.4624-7.0677,5.5682-14.1402,13.3239-20.4527,22.4286-13.4524,19.4027-21.9313,42.6476-22.6884,62.1972-.3266,5.6269-.2544,11.3529.2146,17.0196l.0068.076c1.0181,10.6866-.0237,21.3777-3.0967,31.7763-2.9657,10.035-7.7207,19.4893-14.1332,28.1002-7.6242,10.2382-17.2144,18.7566-28.0727,25.0902-2.9761,1.7359-6.3919-1.4312-4.8653-4.5199,8.5859-17.3721,16.0131-34.3791,11.4596-51.4828l-1.0667-4.0074-4.1149-.5142c-4.5925-.574-18.1746-.8651-22.7216-.8651-38.5499,0-73.1193,20.426-92.473,54.6396-13.4759,23.8226-17.2387,50.7207-11.3454,76.1776.7656,3.3071-3.1956,5.6206-5.7039,3.3333l-.6041-.5509c-8.2788-7.5557-15.7296-16.0146-22.1458-25.1418-6.4569-9.185-11.9105-19.1111-16.2096-29.5026-4.3718-10.5671-7.5856-21.7045-9.5521-33.1031l-.0035-.0202c-3.954-22.4721-2.8108-44.0543,3.3978-64.1471Zm286.2721-152.7982c-2.3662,4.8103,3.1932,8.7406,6.9389,4.9051.0701-.0717.1314-.1585.1757-.2485,2.3672-4.8107-3.1935-8.7417-6.939-4.9051-.07.0718-.1314.1585-.1757.2485Z"/><path class="b" d="m209.0101,413.5832c2.2766-7.3297,5.4025-14.405,9.276-21.027,1.4054-2.4026,4.9113-2.2317,6.1216.2749,11.4783,23.7722,30.5358,43.1786,53.9573,55.2121,58.8805,30.4122,123.9018,7.0737,157.2646-41.585.4027-.5873.8067-1.2297,1.2115-1.9222,4.6353-7.9305,16.6143-1.8978,12.9506,6.5258-.1447.3326-.2915.6635-.4405.9925-.9211,2.0335-1.6117,4.1654-2.4853,6.2229-8.706,20.9131-22.0294,39.8882-38.5761,55.3489,0,0,.0002.0014-.0011.0016-43.1062,42.499-122.7084,56.9816-176.3427,28.1586-10.4972-5.6411-18.5143-15.0574-22.2367-26.378-6.5689-19.9774-6.9445-42.6133-.6991-61.8253Z"/><path class="c" d="m249.7713,366.7244c-3.1111,15.11-2.805,31.1006.7279,46.2647.5722,2.4558-2.5439,4.0238-4.188,2.1118l-.0658-.0765c-7.823-9.1054-14.1416-19.3266-18.7804-30.3797l-.5616-1.3691c-.4845-1.1811-.2729-2.5274.5317-3.5186,4.9508-6.0991,10.599-11.6428,16.8445-16.4786,2.5313-1.9599,6.1373.3104,5.4917,3.446Z"/></svg>